# xmcd
#
# Track frame offsets:
#	150
#	18169
#	34026
#	45155
#	67569
#	82005
#	103368
#	117013
#	137552
#	162881
#	180625
#	197340
#	211434
#	224037
#	243371
#	263078
#	277153
#	297359
#	308261
#	326078
#
# Disc length: 4582 seconds
#
# Revision: 0
# Processed by: cddbd v1.5.2PL0 Copyright (c) Steve Scherf et al.
# Submitted via: EasyCDDAExtractor 15.2.5.1
#
DISCID=1811e414
DTITLE=Various Artist - INDEPENDENT ALMANAC 2012 2/2
DYEAR=1900
DGENRE=
TTITLE0=DIRTY PROJECTORS - ABOUT TO DIE
TTITLE1=PURITY RING - FINESHRINE
TTITLE2=SHOVELS and ROPE - O' BE JOYFUL
TTITLE3=BILL FAY - BE AT PEACE WITH YOURSELF
TTITLE4=YEASAYER - LONGEVITY
TTITLE5=DAN DEACON - TRUE THRUSH
TTITLE6=SEAN ROWE - JOE'S CULT
TTITLE7=CAT POWER - RUIN
TTITLE8=ANIMAL COLLECTIVE - APPLESAUCE
TTITLE9=BOB MOULD - THE DESCENT
TTITLE10=CALEXICO - ALGIERS
TTITLE11=TITLE FIGHT - SECRET SOCIETY
TTITLE12=BROTHER ALI - NEED A KNOT
TTITLE13=DUM DUM GIRLS - LORD KNOWS
TTITLE14=BETTYE LAVETTE - THANKFUL N' THOUGHTFUL
TTITLE15=HOW TO DRESS WELL - and IT WAS U
TTITLE16=BETH ORTON - MAGPIE
TTITLE17=METZ - GET OFF
TTITLE18=MACKLEMORE and RYAN LEWIS - THRIFT SHOP
TTITLE19=P.O.S. and JUSTIN VERNON - HOW WE LAND
EXTD=
EXTT0=
EXTT1=
EXTT2=
EXTT3=
EXTT4=
EXTT5=
EXTT6=
EXTT7=
EXTT8=
EXTT9=
EXTT10=
EXTT11=
EXTT12=
EXTT13=
EXTT14=
EXTT15=
EXTT16=
EXTT17=
EXTT18=
EXTT19=
PLAYORDER=
